<svg width="395" height="417" viewBox="0 0 395 417" fill="none" xmlns="http://www.w3.org/2000/svg">
<path d="M226.299 406.996C225.955 406.996 225.612 406.905 225.304 406.727L58.5776 308.649C58.1048 308.373 57.772 307.91 57.6565 307.374C57.5409 306.838 57.653 306.282 57.9682 305.833L192.253 115.005C192.876 114.118 194.099 113.905 194.985 114.528C195.871 115.152 196.085 116.374 195.461 117.26L62.4051 306.349L224.513 401.71L229.778 304.287C229.837 303.205 230.748 302.385 231.841 302.434C232.923 302.494 233.75 303.418 233.694 304.497L228.254 405.139C228.216 405.822 227.827 406.439 227.221 406.761C226.934 406.918 226.615 406.996 226.296 406.996L226.299 406.996ZM233.328 276.98C233.293 276.98 233.258 276.98 233.22 276.976C232.137 276.917 231.311 275.992 231.367 274.913L243.584 48.8905L212.393 93.2127C211.77 94.0989 210.548 94.3126 209.661 93.6891C208.775 93.0656 208.561 91.8432 209.185 90.957L244.309 41.0486C244.814 40.334 245.728 40.0363 246.554 40.3235C247.381 40.6108 247.917 41.4093 247.871 42.2815L235.283 275.128C235.227 276.172 234.362 276.981 233.329 276.981L233.328 276.98Z" fill="white"/>
<path d="M383.216 308.919H273.257C272.175 308.919 271.296 308.04 271.296 306.958C271.296 305.875 272.175 304.996 273.257 304.996H380.122L303.751 142.709L85.2335 225.595C84.2177 225.98 83.0864 225.469 82.7046 224.456C82.3193 223.444 82.8307 222.309 83.8429 221.927L304.064 138.398C305.02 138.037 306.096 138.468 306.534 139.396L384.992 306.122C385.279 306.728 385.234 307.443 384.873 308.01C384.516 308.577 383.892 308.921 383.22 308.921L383.216 308.919ZM243.838 308.919H59.5727C58.9177 308.919 58.3047 308.59 57.9405 308.047L18.7113 249.203C18.3786 248.706 18.2945 248.086 18.4766 247.515C18.6588 246.948 19.0896 246.492 19.65 246.279L56.3362 232.362C57.352 231.977 58.4833 232.488 58.8651 233.501C59.2504 234.513 58.739 235.648 57.7268 236.03L23.3414 249.07L60.623 304.996H243.839C244.921 304.996 245.8 305.875 245.8 306.957C245.797 308.04 244.918 308.919 243.835 308.919L243.838 308.919Z" fill="white"/>
<path d="M20.3431 250.08C19.8808 250.08 19.422 249.915 19.0576 249.6C18.5112 249.131 18.2696 248.395 18.4272 247.691L57.6563 71.1553C57.7719 70.6299 58.1012 70.1745 58.5635 69.8979C59.0258 69.6213 59.5827 69.5476 60.0976 69.6912L149.029 94.5917C150.073 94.8824 150.682 95.9646 150.388 97.0084C150.097 98.0523 149.011 98.6617 147.971 98.3674L61.0331 74.0247L23.0404 244.983L125.655 206.062C126.667 205.677 127.802 206.189 128.184 207.201C128.569 208.213 128.058 209.348 127.046 209.73L21.0416 249.947C20.8139 250.031 20.5793 250.073 20.3446 250.073L20.3431 250.08ZM153.866 199.436C153.074 199.436 152.328 198.953 152.03 198.172C151.645 197.159 152.156 196.024 153.169 195.643L298.482 140.522L176.312 106.312C175.268 106.022 174.658 104.939 174.953 103.895C175.243 102.852 176.326 102.242 177.369 102.537L305.288 138.354C306.104 138.582 306.682 139.307 306.721 140.154C306.759 141.002 306.248 141.776 305.456 142.077L154.565 199.313C154.33 199.394 154.092 199.436 153.864 199.436L153.866 199.436Z" fill="white"/>
<path d="M373.406 416.806C361.507 416.806 351.83 407.128 351.83 395.23C351.83 383.332 361.508 373.655 373.406 373.655C385.304 373.655 394.981 383.332 394.981 395.23C394.981 407.128 385.304 416.806 373.406 416.806ZM373.406 377.577C363.673 377.577 355.752 385.496 355.752 395.23C355.752 404.965 363.672 412.884 373.406 412.884C383.14 412.884 391.059 404.965 391.059 395.23C391.059 385.496 383.14 377.577 373.406 377.577Z" fill="white"/>
<path d="M138.031 44.1245C126.132 44.1245 116.455 34.4467 116.455 22.5489C116.455 10.651 126.133 0.973274 138.031 0.973274C149.929 0.973274 159.607 10.651 159.607 22.5489C159.607 34.4467 149.929 44.1245 138.031 44.1245ZM138.031 4.89529C128.298 4.89529 120.377 12.8147 120.377 22.5489C120.377 32.2831 128.297 40.2024 138.031 40.2024C147.765 40.2024 155.684 32.2831 155.684 22.5489C155.684 12.8147 147.765 4.89529 138.031 4.89529Z" fill="white"/>
<path d="M324.367 279.5C323.849 279.5 323.348 279.282 322.973 278.922C322.609 278.557 322.406 278.049 322.406 277.538C322.406 277.016 322.612 276.508 322.973 276.144C323.709 275.419 325.022 275.419 325.747 276.144C326.119 276.515 326.325 277.016 326.325 277.538C326.325 278.049 326.119 278.557 325.747 278.922C325.387 279.282 324.886 279.5 324.367 279.5Z" fill="white"/>
<path d="M294.948 279.5C294.429 279.5 293.928 279.282 293.564 278.922C293.193 278.557 292.986 278.049 292.986 277.538C292.986 277.016 293.193 276.508 293.564 276.144C294.279 275.419 295.603 275.419 296.331 276.144C296.702 276.515 296.909 277.016 296.909 277.538C296.909 278.049 296.702 278.557 296.342 278.922C295.967 279.282 295.466 279.5 294.947 279.5H294.948Z" fill="white"/>
<path d="M265.528 279.5C265.009 279.5 264.509 279.282 264.134 278.922C263.77 278.557 263.566 278.049 263.566 277.538C263.566 277.016 263.773 276.519 264.134 276.144C264.869 275.419 266.183 275.419 266.908 276.144C267.279 276.515 267.486 277.016 267.486 277.538C267.486 278.049 267.279 278.557 266.918 278.922C266.547 279.282 266.046 279.5 265.528 279.5H265.528Z" fill="white"/>
<path d="M265.528 250.08C265.016 250.08 264.509 249.863 264.134 249.502C263.77 249.138 263.566 248.63 263.566 248.118C263.566 247.596 263.773 247.099 264.134 246.724C264.869 245.999 266.183 245.999 266.908 246.724C267.279 247.096 267.486 247.596 267.486 248.118C267.486 248.63 267.279 249.138 266.908 249.502C266.547 249.863 266.039 250.08 265.528 250.08Z" fill="white"/>
<path d="M265.528 220.66C265.01 220.66 264.509 220.443 264.144 220.082C263.773 219.718 263.566 219.21 263.566 218.699C263.566 218.177 263.773 217.679 264.134 217.305C264.869 216.58 266.183 216.58 266.908 217.305C267.279 217.676 267.486 218.177 267.486 218.699C267.486 219.21 267.279 219.718 266.918 220.082C266.547 220.443 266.046 220.66 265.528 220.66Z" fill="white"/>
<path d="M0.733154 385.423H20.3477V405.037H0.733154V385.423Z" fill="white"/>
<path d="M30.153 385.423H49.7675V405.037H30.153V385.423Z" fill="white"/>
<path d="M59.5726 385.423H79.1872V405.037H59.5726V385.423Z" fill="white"/>
<path d="M88.9923 385.423H108.607V405.037H88.9923V385.423Z" fill="white"/>
</svg>
