<svg width="32" height="32" viewBox="0 0 32 32" fill="none" xmlns="http://www.w3.org/2000/svg">
<path d="M25.5171 21.1442L25.4699 25.8899C25.4659 27.2873 24.5488 28.6806 22.7108 29.7511C19.0189 31.8962 13.0048 31.8962 9.28529 29.7511C7.41572 28.6687 6.47895 27.2517 6.48292 25.8347L6.53015 21.0969C6.53015 22.5139 7.46295 23.9268 9.33252 25.0053C13.052 27.1503 19.0621 27.1503 22.758 25.0053C24.5922 23.9388 25.5131 22.5414 25.5171 21.1442Z" fill="#BFBFBF"/>
<path d="M22.7582 25.0054C19.0624 27.1504 13.0522 27.1504 9.33272 25.0054C5.61323 22.8564 5.59358 19.3731 9.28945 17.228C12.9853 15.079 18.9954 15.079 22.7149 17.228C26.4343 19.3731 26.4541 22.8564 22.7582 25.0054Z" fill="#E8E8E8"/>
<path d="M24.6446 18.3921L24.6018 20.7441C24.5983 22.01 23.7675 23.2721 22.1025 24.2418C18.7581 26.185 13.3102 26.185 9.94092 24.2418C8.24735 23.2613 7.39877 21.9777 7.40236 20.6941L7.44511 18.3492C7.44511 19.6328 8.2901 20.9128 9.98367 21.8898C13.353 23.8328 18.7974 23.8328 22.1453 21.8898C23.8067 20.9236 24.641 19.6578 24.6446 18.3921Z" fill="#EE4541"/>
<path d="M22.1451 21.8898C18.7972 23.8328 13.3527 23.8328 9.98345 21.8898C6.61411 19.9431 6.59632 16.7876 9.94422 14.8444C13.2921 12.8977 18.7365 12.8977 22.1058 14.8444C25.4752 16.7877 25.493 19.9431 22.1451 21.8898Z" fill="#7BD3F7"/>
<path d="M25.5171 13.6562L25.4699 18.4018C25.4659 19.7992 24.5488 21.1926 22.7108 22.263C19.0189 24.4082 13.0048 24.4082 9.28529 22.263C7.41572 21.1807 6.47895 19.7637 6.48292 18.3467L6.53015 13.6089C6.53015 15.0258 7.46295 16.4388 9.33252 17.5173C13.052 19.6623 19.0621 19.6623 22.758 17.5173C24.5922 16.4507 25.5131 15.0534 25.5171 13.6562Z" fill="#BFBFBF"/>
<path d="M22.7582 17.5173C19.0624 19.6622 13.0522 19.6622 9.33272 17.5173C5.61323 15.3683 5.59358 11.8849 9.28945 9.7398C12.9853 7.5908 18.9954 7.5908 22.7149 9.7398C26.4343 11.8849 26.4541 15.3683 22.7582 17.5173Z" fill="#E8E8E8"/>
<path d="M24.6446 10.9041L24.6018 13.2561C24.5983 14.5219 23.7675 15.7841 22.1025 16.7537C18.7581 18.697 13.3102 18.697 9.94092 16.7537C8.24735 15.7733 7.39877 14.4897 7.40236 13.2061L7.44511 10.8612C7.44511 12.1448 8.2901 13.4247 9.98367 14.4018C13.353 16.3448 18.7974 16.3448 22.1453 14.4018C23.8067 13.4355 24.641 12.1697 24.6446 10.9041Z" fill="#EE4541"/>
<path d="M22.1451 14.4018C18.7972 16.3448 13.3527 16.3448 9.98345 14.4018C6.61411 12.4551 6.59632 9.29961 9.94422 7.35638C13.2921 5.40969 18.7365 5.40969 22.1058 7.35638C25.4752 9.29961 25.493 12.4551 22.1451 14.4018Z" fill="#7BD3F7"/>
<path d="M25.5171 6.16802L25.4699 10.9137C25.4659 12.3111 24.5488 13.7044 22.7108 14.7749C19.0189 16.92 13.0048 16.92 9.28529 14.7749C7.41572 13.6925 6.47895 12.2755 6.48292 10.8585L6.53015 6.12073C6.53015 7.53769 7.46295 8.95062 9.33252 10.0291C13.052 12.1741 19.0621 12.1741 22.758 10.0291C24.5922 8.96258 25.5131 7.56521 25.5171 6.16802Z" fill="#BFBFBF"/>
<path d="M22.7582 10.0292C19.0624 12.1742 13.0522 12.1742 9.33272 10.0292C5.61323 7.88024 5.59358 4.39691 9.28945 2.25176C12.9853 0.102767 18.9954 0.102767 22.7149 2.25176C26.4343 4.39691 26.4541 7.88024 22.7582 10.0292Z" fill="#E8E8E8"/>
<path d="M9.6258 3.50136C11.3127 2.52018 13.5741 1.98002 15.9933 1.98002C18.4131 1.98002 20.681 2.5205 22.3797 3.502C23.8264 4.3363 24.674 5.38878 24.8175 6.49464C24.8326 6.3811 24.8475 6.26725 24.8473 6.15275C24.8453 4.92779 23.9692 3.74866 22.3798 2.83192C20.6811 1.85042 18.4131 1.30994 15.9933 1.30994C13.5742 1.30994 11.3128 1.8501 9.62586 2.83128C8.06068 3.73982 7.19956 4.90917 7.2002 6.12363C7.20032 6.23454 7.21568 6.34482 7.23002 6.4547C7.37428 5.36331 8.20711 4.32485 9.6258 3.50136Z" fill="#BFBFBF"/>
<path d="M9.66774 9.44872C11.3658 10.4283 13.6344 10.9678 16.0542 10.9678C18.4733 10.9678 20.7347 10.4286 22.421 9.45C23.8398 8.62516 24.6731 7.58606 24.8176 6.4946C24.674 5.38875 23.8265 4.3362 22.3797 3.50196C20.6811 2.52046 18.4131 1.97998 15.9933 1.97998C13.5742 1.97998 11.3127 2.52014 9.62582 3.50132C8.20713 4.32481 7.3743 5.36328 7.22998 6.45473C7.37404 7.56059 8.2216 8.61339 9.66774 9.44872Z" fill="#D7D7D7"/>
</svg>
