<svg width="32" height="32" viewBox="0 0 32 32" fill="none" xmlns="http://www.w3.org/2000/svg">
<path d="M27.5 9H21V2.5C21 2.36739 20.9473 2.24021 20.8536 2.14645C20.7598 2.05268 20.6326 2 20.5 2H6.5C6.36739 2 6.24021 2.05268 6.14645 2.14645C6.05268 2.24021 6 2.36739 6 2.5V16.5C6 16.6326 6.05268 16.7598 6.14645 16.8536C6.24021 16.9473 6.36739 17 6.5 17H20V25H6.5C6.36739 25 6.24021 25.0527 6.14645 25.1464C6.05268 25.2402 6 25.3674 6 25.5V29.5C6 29.6326 6.05268 29.7598 6.14645 29.8536C6.24021 29.9473 6.36739 30 6.5 30H27.5C27.6326 30 27.7598 29.9473 27.8536 29.8536C27.9473 29.7598 28 29.6326 28 29.5V9.5C28 9.36739 27.9473 9.24021 27.8536 9.14645C27.7598 9.05268 27.6326 9 27.5 9Z" fill="#EEEEEE"/>
<path d="M20.5 16H4.5C4.22386 16 4 16.2239 4 16.5V25.5C4 25.7761 4.22386 26 4.5 26H20.5C20.7761 26 21 25.7761 21 25.5V16.5C21 16.2239 20.7761 16 20.5 16Z" fill="#66BB6A"/>
<path d="M27.855 9.14498L20.855 2.14498C20.7851 2.07446 20.6957 2.02637 20.5983 2.00684C20.501 1.9873 20.4 1.99721 20.3083 2.03529C20.2165 2.07338 20.1382 2.13791 20.0833 2.22067C20.0284 2.30343 19.9994 2.40067 20 2.49998V9.49998C20 9.63259 20.0527 9.75976 20.1465 9.85353C20.2402 9.9473 20.3674 9.99998 20.5 9.99998H27.5C27.5993 10.0006 27.6966 9.97154 27.7793 9.91664C27.8621 9.86174 27.9266 9.78344 27.9647 9.69172C28.0028 9.6 28.0127 9.49901 27.9931 9.40164C27.9736 9.30426 27.9255 9.21491 27.855 9.14498Z" fill="#E0E0E0"/>
<path d="M9.49968 21.66H10.3997C10.3683 21.9353 10.2648 22.1975 10.0997 22.42C9.94135 22.6261 9.73549 22.7908 9.49968 22.9C9.24707 23.0156 8.97248 23.0753 8.69468 23.075C8.43597 23.0851 8.17817 23.0388 7.93906 22.9396C7.69995 22.8403 7.48522 22.6903 7.30968 22.5C6.93904 22.0907 6.74497 21.5517 6.76968 21C6.74754 20.4506 6.93727 19.9136 7.29968 19.5C7.46708 19.3093 7.67428 19.1576 7.90667 19.0557C8.13906 18.9538 8.39098 18.904 8.64468 18.91C8.89981 18.9043 9.15313 18.954 9.38711 19.0559C9.62108 19.1578 9.8301 19.3093 9.99968 19.5C10.2128 19.7495 10.3499 20.0549 10.3947 20.38H9.49968C9.4553 20.2036 9.35102 20.0481 9.20468 19.94C9.04146 19.8334 8.84953 19.7794 8.65468 19.785C8.51279 19.7811 8.37188 19.8097 8.24274 19.8686C8.11361 19.9276 7.99968 20.0153 7.90968 20.125C7.71538 20.3742 7.61612 20.6844 7.62968 21C7.61622 21.3173 7.71938 21.6286 7.91968 21.875C8.01119 21.984 8.12623 22.0708 8.25615 22.1288C8.38607 22.1868 8.52746 22.2146 8.66968 22.21C8.8489 22.2204 9.02666 22.1725 9.17631 22.0733C9.32596 21.9741 9.43942 21.8291 9.49968 21.66ZM11.1747 21.81H11.9997C12.0347 21.9765 12.1303 22.1239 12.268 22.2237C12.4057 22.3235 12.5756 22.3686 12.7447 22.35C12.9011 22.358 13.0558 22.3141 13.1847 22.225C13.2374 22.1868 13.2799 22.1363 13.3087 22.078C13.3374 22.0196 13.3515 21.9551 13.3497 21.89C13.3544 21.8036 13.3298 21.7181 13.2799 21.6473C13.23 21.5765 13.1577 21.5246 13.0747 21.5C13.038 21.5 12.8713 21.45 12.5747 21.35C12.2609 21.2826 11.9603 21.1644 11.6847 21C11.5517 20.903 11.4446 20.7747 11.3731 20.6264C11.3016 20.4782 11.2678 20.3145 11.2747 20.15C11.2679 19.9832 11.298 19.817 11.3628 19.6632C11.4276 19.5093 11.5256 19.3717 11.6497 19.26C11.9279 19.0246 12.2858 18.9047 12.6497 18.925C13.0086 18.9113 13.3614 19.0207 13.6497 19.235C13.7757 19.3271 13.8784 19.4474 13.9496 19.5864C14.0208 19.7253 14.0585 19.8789 14.0597 20.035H13.2247C13.1981 19.9102 13.1247 19.8002 13.0197 19.7277C12.9146 19.6552 12.7858 19.6256 12.6597 19.645C12.5228 19.6385 12.3875 19.6771 12.2747 19.755C12.2285 19.7889 12.1912 19.8334 12.166 19.8847C12.1407 19.9361 12.1283 19.9928 12.1297 20.05C12.126 20.1137 12.1411 20.177 12.1731 20.2321C12.2051 20.2872 12.2526 20.3317 12.3097 20.36C12.5104 20.4439 12.7201 20.5043 12.9347 20.54C13.2123 20.5865 13.4797 20.6813 13.7247 20.82C13.884 20.9218 14.014 21.0635 14.1017 21.231C14.1894 21.3986 14.2318 21.5861 14.2247 21.775C14.233 21.9859 14.185 22.1953 14.0857 22.3816C13.9864 22.5678 13.8394 22.7243 13.6597 22.835C13.3766 22.9999 13.052 23.0798 12.7247 23.065C12.4766 23.087 12.2269 23.0469 11.9982 22.9482C11.7695 22.8496 11.569 22.6956 11.4147 22.5C11.2771 22.2943 11.1945 22.0567 11.1747 21.81ZM16.1297 23L14.6297 19H15.5247L16.4997 21.7L17.3347 19H18.2097L16.8847 23H16.1297Z" fill="white"/>
</svg>
