<svg width="32" height="32" viewBox="0 0 32 32" fill="none" xmlns="http://www.w3.org/2000/svg">
<g clip-path="url(#clip0_245_68153)">
<path d="M29.9998 9V7.25C29.9998 6.91848 29.8681 6.60054 29.6337 6.36612C29.3993 6.1317 29.0813 6 28.7498 6H12.2498C12.0849 6.0027 11.9212 5.97222 11.7683 5.91036C11.6154 5.8485 11.4765 5.75652 11.3599 5.63991C11.2433 5.52329 11.1513 5.38441 11.0895 5.23153C11.0276 5.07866 10.9971 4.9149 10.9998 4.75V3.25C10.9998 2.91848 10.8681 2.60054 10.6337 2.36612C10.3993 2.1317 10.0813 2 9.74983 2H1.28983C0.947523 2.00902 0.622002 2.1502 0.38151 2.39396C0.141018 2.63771 0.00423071 2.96511 -0.000173106 3.3075V28.3875C-0.00853128 28.5921 0.0237357 28.7963 0.0947638 28.9884C0.165792 29.1805 0.274173 29.3565 0.413646 29.5065C0.553119 29.6564 0.720918 29.7772 0.907351 29.8619C1.09378 29.9466 1.29515 29.9936 1.49983 30H29.9998" fill="#FFCC80"/>
<path d="M1.5 30C1.70012 30.012 1.90052 29.9814 2.08796 29.9103C2.2754 29.8392 2.44562 29.7291 2.58738 29.5873C2.72914 29.4456 2.83922 29.2754 2.91035 29.0879C2.98147 28.9005 3.01203 28.7001 3 28.5L3.0975 12.7675V10.5C3.10202 10.3354 3.13903 10.1733 3.20638 10.023C3.27374 9.87274 3.37012 9.73726 3.48999 9.62436C3.60986 9.51146 3.75086 9.42336 3.90488 9.36511C4.0589 9.30687 4.22292 9.27963 4.3875 9.28496H30.71C30.8746 9.27963 31.0386 9.30687 31.1926 9.36511C31.3466 9.42336 31.4876 9.51146 31.6075 9.62436C31.7274 9.73726 31.8238 9.87274 31.8911 10.023C31.9585 10.1733 31.9955 10.3354 32 10.5V28.5C31.9737 28.8891 31.8072 29.2555 31.5314 29.5313C31.2556 29.8071 30.8892 29.9736 30.5 30H1.5Z" fill="#FFECB3"/>
</g>
<defs>
<clipPath id="clip0_245_68153">
<rect width="32" height="32" fill="white"/>
</clipPath>
</defs>
</svg>
