<svg width="24" height="25" viewBox="0 0 24 25" fill="none" xmlns="http://www.w3.org/2000/svg">
<path d="M22.501 12.99C22.501 12.1267 22.4296 11.4967 22.2748 10.8434H12.2153V14.74H18.12C18.001 15.7084 17.3582 17.1667 15.9296 18.1467L15.9096 18.2771L19.0902 20.6918L19.3106 20.7134C21.3343 18.8817 22.501 16.1867 22.501 12.99Z" fill="#4285F4"/>
<path d="M12.214 23.2569C15.1068 23.2569 17.5353 22.3235 19.3092 20.7136L15.9282 18.1468C15.0235 18.7651 13.8092 19.1968 12.214 19.1968C9.38069 19.1968 6.97596 17.3652 6.11874 14.8335L5.99309 14.844L2.68583 17.3523L2.64258 17.4701C4.40446 20.9002 8.0235 23.2569 12.214 23.2569Z" fill="#34A853"/>
<path d="M6.12046 14.8336C5.89428 14.1802 5.76337 13.4802 5.76337 12.7569C5.76337 12.0335 5.89428 11.3335 6.10856 10.6802L6.10257 10.5411L2.75386 7.99243L2.64429 8.0435C1.91814 9.46686 1.50146 11.0652 1.50146 12.7569C1.50146 14.4485 1.91814 16.0468 2.64429 17.4702L6.12046 14.8336Z" fill="#FBBC05"/>
<path d="M12.2141 6.31681C14.2259 6.31681 15.583 7.16847 16.3569 7.88019L19.3807 4.98684C17.5236 3.29517 15.1069 2.25684 12.2141 2.25684C8.02353 2.25684 4.40447 4.61348 2.64258 8.04346L6.10686 10.6802C6.97598 8.1485 9.38073 6.31681 12.2141 6.31681Z" fill="#EB4335"/>
</svg>
