<svg width="32" height="32" viewBox="0 0 32 32" fill="none" xmlns="http://www.w3.org/2000/svg">
<rect width="32" height="32" rx="4" transform="matrix(0 1 1 0 0 0)" fill="#01AFB2"/>
<rect x="0.5" y="0.5" width="31" height="31" rx="3.5" transform="matrix(0 1 1 0 0 0)" stroke="#008689" stroke-opacity="0.2"/>
<path d="M8 21.0953V10.9135C8 9.30684 9.30244 8.00439 10.9091 8.00439L21 8.00049C22.5 8.00049 23.9091 9.30293 23.9091 10.9096L24 21.0953C24 22.702 22.6976 24.0044 21.0909 24.0044H10.9091C9.30244 24.0044 8 22.702 8 21.0953Z" fill="white"/>
<path fill-rule="evenodd" clip-rule="evenodd" d="M13.584 15.5603L23.3965 15.5222L23.9998 15.5198V11.1847C23.9998 9.428 22.5964 8.00391 20.8651 8.00391H13.584V15.5603Z" fill="#01C4C7" fill-opacity="0.65"/>
<path fill-rule="evenodd" clip-rule="evenodd" d="M14.9883 17.6383L23.4536 17.6717L23.9993 17.6739V21.1316C23.9993 22.7392 22.7328 24.0425 21.1704 24.0425H14.9883V17.6383Z" fill="#F7F7F7"/>
<path d="M12.5293 23.2851V24.2851H14.5293V23.2851H12.5293ZM12.5293 8V23.2851H14.5293V8H12.5293Z" fill="#01AFB2"/>
<path d="M13.832 16.041L23.4613 16.0041" stroke="#01AFB2" stroke-width="2" stroke-linecap="square" stroke-linejoin="round"/>
</svg>
