<svg width="29" height="12" viewBox="0 0 29 12" fill="none" xmlns="http://www.w3.org/2000/svg">
<path d="M0.12 11.5V0.0919991L9.752 0.0599995C11.0213 0.0599995 11.96 0.326666 12.568 0.86C13.1867 1.38267 13.496 2.172 13.496 3.228C13.496 4.284 13.144 5.05733 12.44 5.548C12.9093 5.804 13.256 6.14533 13.48 6.572C13.704 6.988 13.816 7.52667 13.816 8.188C13.816 9.26533 13.5067 10.0867 12.888 10.652C12.28 11.2067 11.3413 11.484 10.072 11.484L0.12 11.5ZM9.448 2.108H2.68V4.668H9.448C10.4187 4.668 10.904 4.23067 10.904 3.356C10.904 2.524 10.4187 2.108 9.448 2.108ZM9.768 6.716H2.68V9.436H9.768C10.7387 9.436 11.224 8.97733 11.224 8.06C11.224 7.164 10.7387 6.716 9.768 6.716ZM15.5731 11.5V0.0599995H28.1171V2.14H18.1331V4.668H27.1891V6.748H18.1331V9.42H28.1171V11.5H15.5731Z" fill="#080C1E"/>
</svg>
