<svg width="16" height="17" viewBox="0 0 16 17" fill="none" xmlns="http://www.w3.org/2000/svg">
<g clip-path="url(#clip0_11_373)">
<path d="M8.5 8.25684H16V1.25684C16 1.12423 15.9473 0.997051 15.8536 0.903283C15.7598 0.809514 15.6326 0.756836 15.5 0.756836H8.5V8.25684Z" fill="#4CAF50"/>
<path d="M7.5 8.25684V0.756836H0.5C0.367392 0.756836 0.240215 0.809514 0.146447 0.903283C0.0526784 0.997051 0 1.12423 0 1.25684L0 8.25684H7.5Z" fill="#F44336"/>
<path d="M7.5 9.25684H0V16.2568C0 16.3894 0.0526784 16.5166 0.146447 16.6104C0.240215 16.7042 0.367392 16.7568 0.5 16.7568H7.5V9.25684Z" fill="#2196F3"/>
<path d="M8.5 9.25684V16.7568H15.5C15.6326 16.7568 15.7598 16.7042 15.8536 16.6104C15.9473 16.5166 16 16.3894 16 16.2568V9.25684H8.5Z" fill="#FFC107"/>
</g>
<defs>
<clipPath id="clip0_11_373">
<rect width="16" height="16" fill="white" transform="translate(0 0.756836)"/>
</clipPath>
</defs>
</svg>
